/* XPM */
/*****************************************************************
* PerfTrack Version 1.0 (September 2005)
* 
* For information on PerfTrack, please contact John May
* (johnmay@llnl.gov) or Karen Karavanic (karavan@cs.pdx.edu).
* 
* See COPYRIGHT AND LICENSE information at the end of this file.
*
*****************************************************************/

static char *newqueryicon32x32[] =
{
/* width height ncolors chars_per_pixel */
"32 32 18 1",
/* colors */
"A c None",
"B c #CCCCCCCCCCCC",
"C c #9999FFFF9999",
"D c #9999CCCC9999",
"E c #6666CCCC6666",
"F c #666633330000",
"G c #3333CCCC3333",
"H c #333333333333",
"I c #0000CCCCFFFF",
"J c #00009999FFFF",
"K c #00003333CCCC",
"L c #0000BBBB0000",
"M c #BBBBBBBBBBBB",
"N c #888888888888",
"O c #777777777777",
"P c #555555555555",
"Q c #444444444444",
"R c #000000000000",
/* pixels */
"AAAAAQAAAAAAAAAAAAAAAAAAQAAAAAAA",
"AAAAAAQAAAAAAAAAAAAAAAAQAAAAAAAA",
"AAAAAAAQAAAAAAAAAAAAAAQAAAAAAAAA",
"AAAAAAAAQAAAANOPPPAAAQAAAAAAAAAA",
"AAAAAAAAAAAANELLLEQAAAAAAAAAAAAA",
"AAAAAAAAAAANELLLLLGQAAAAAAAAAAAA",
"AAAAAAAAAAAOLLRRRLLQAAAAAAAAAAAA",
"AAAAAAAAAAAAPRAAPLLRAAAAAAAAAAAA",
"AAAAAAAAAAAAAAAPLLCRAAAAAAAAAAAA",
"AAAAAAAAAAAAAAPGLDRAAAAAAAAAAAAA",
"AAAAQQQQQAAAAAPLLRAAAAAQQQQQAAAA",
"AAAAAAAAAAAAAAAPRAAAAAAAAAAAAAAA",
"AAAAAAAAAAAAAANLLRAAAAAAAAAAAAAA",
"AAAAAAAAAAAAAANLLRAAAAAAAAAAAAAA",
"AAAAAAAAAAAAAAAQRAAAAAAAAAAAAAAA",
"AAAAAAAAAAAAAAAAAAAAAAAAAAAAAAAA",
"AAAAAAAQAAAANOPPPPPAAAAQAAAAAAAA",
"AAAAAAQAAAAAOIIIIKRAAAAAQAAAAAAA",
"AAAAAQAAAAAAAPJJKRAAAAAAAQAAAAAA",
"AAAAQAAAAAAAAAPKRAAAAAAAAAQAAAAA",
"AAAAAAAAAAAAAAARAAAAAAAAAAAAAAAA",
"AAAAAAAAAAAAAAAAAAAAAAAAAAAAAAAA",
"AAAAAAAANONRRRRRRRRRRNONAAAAAAAA",
"AAAAABHNONFFFFFFFFFFFFNONHBAAAAA",
"AAAAARFFFFFFFFFFFFFFFFFFFFRAAAAA",
"AAAAAMQONOFFFFFFFFFFFFNONHBAAAAA",
"AAAAAAAAONORRRRRRRRRRONOAAAAAAAA",
"AAAAABHNONFFFFFFFFFFFFNONHBAAAAA",
"AAAAARFFFFFFFFFFFFFFFFFFFFRAAAAA",
"AAAAAMQONOFFFFFFFFFFFFNONHBAAAAA",
"AAAAAAAAONORRRRRRRRRRONOAAAAAAAA",
"AAAAAAAAAAAAAAAAAAAAAAAAAAAAAAAA",
};

/****************************************************************************
COPYRIGHT AND LICENSE
 
Copyright (c) 2005, Regents of the University of California and
Portland State University.  Produced at the Lawrence Livermore
National Laboratory and Portland State University.
UCRL-CODE-2005-155998
All rights reserved.
 
Redistribution and use in source and binary forms, with or
without modification, are permitted provided that the following
conditions are met:
 
* Redistributions of source code must retain the above copyright
notice, this list of conditions and the following disclaimer.
* Redistributions in binary form must reproduce the above copyright
notice, this list of conditions and the following disclaimer in
the documentation and/or other materials provided with the
distribution.
* Neither the name of the University of California
or Portland State Univeristy nor the names of its contributors
may be used to endorse or promote products derived from this
software without specific prior written permission.
 
THIS SOFTWARE IS PROVIDED BY THE COPYRIGHT HOLDERS AND
CONTRIBUTORS "AS IS" AND ANY EXPRESS OR IMPLIED WARRANTIES,
INCLUDING, BUT NOT LIMITED TO, THE IMPLIED WARRANTIES OF
MERCHANTABILITY AND FITNESS FOR A PARTICULAR PURPOSE ARE
DISCLAIMED. IN NO EVENT SHALL THE COPYRIGHT OWNER OR CONTRIBUTORS
BE LIABLE FOR ANY DIRECT, INDIRECT, INCIDENTAL, SPECIAL,
EXEMPLARY, OR CONSEQUENTIAL DAMAGES (INCLUDING, BUT NOT LIMITED
TO, PROCUREMENT OF SUBSTITUTE GOODS OR SERVICES; LOSS OF USE,
DATA, OR PROFITS; OR BUSINESS INTERRUPTION) HOWEVER CAUSED AND ON
ANY THEORY OF LIABILITY, WHETHER IN CONTRACT, STRICT LIABILITY,
OR TORT (INCLUDING NEGLIGENCE OR OTHERWISE) ARISING IN ANY WAY
OUT OF THE USE OF THIS SOFTWARE, EVEN IF ADVISED OF THE
POSSIBILITY OF SUCH DAMAGE.

ACKNOWLEDGMENT

1. This notice is required to be provided under our contract with the U.S.
Department of Energy (DOE).  This work was produced at the University
of California, Lawrence Livermore National Laboratory under Contract
No. W-7405-ENG-48 with the DOE.

2. Neither the United States Government nor the University of California
nor any of their employees, makes any warranty, express or implied, or
assumes any liability or responsibility for the accuracy, completeness, or
usefulness of any information, apparatus, product, or process disclosed, or
represents that its use would not infringe privately-owned rights.

3.  Also, reference herein to any specific commercial products, process, or
services by trade name, trademark, manufacturer or otherwise does not
necessarily constitute or imply its endorsement, recommendation, or
favoring by the United States Government or the University of California.
The views and opinions of authors expressed herein do not necessarily
state or reflect those of the United States Government or the University of
California, and shall not be used for advertising or product endorsement
purposes. 
****************************************************************************/

